<svg width="100%" viewBox="0 0 680 820" role="img" xmlns="http://www.w3.org/2000/svg">
<title>Smart Access. Smarter You. — Secure, Simple, Seamless</title>
<desc>Illustration of a person sitting with a laptop in front of a large smartphone showing a Welcome Back login screen, surrounded by plants and a city backdrop.</desc>

<defs>
  <clipPath id="phoneClip">
    <rect x="215" y="80" width="220" height="420" rx="30"/>
  </clipPath>
</defs>

<!-- Background card -->
<rect x="20" y="20" width="640" height="760" rx="20" fill="#f0faf0"/>

<!-- Soft background blobs -->
<ellipse cx="480" cy="300" rx="130" ry="120" fill="#c8eac8" opacity="0.5"/>
<ellipse cx="160" cy="350" rx="90" ry="80" fill="#d4edd4" opacity="0.4"/>

<!-- City buildings (background) -->
<rect x="450" y="310" width="30" height="90" rx="3" fill="#b8ddb8"/>
<rect x="488" y="290" width="25" height="110" rx="3" fill="#a8d4a8"/>
<rect x="520" y="320" width="35" height="80" rx="3" fill="#b8ddb8"/>
<!-- Windows -->
<rect x="456" y="318" width="6" height="6" rx="1" fill="#e8f5e8"/>
<rect x="468" y="318" width="6" height="6" rx="1" fill="#e8f5e8"/>
<rect x="456" y="330" width="6" height="6" rx="1" fill="#e8f5e8"/>
<rect x="494" y="300" width="6" height="6" rx="1" fill="#e8f5e8"/>
<rect x="505" y="300" width="6" height="6" rx="1" fill="#e8f5e8"/>
<rect x="494" y="314" width="6" height="6" rx="1" fill="#e8f5e8"/>
<rect x="528" y="328" width="7" height="6" rx="1" fill="#e8f5e8"/>
<rect x="541" y="328" width="7" height="6" rx="1" fill="#e8f5e8"/>

<!-- Paper plane -->
<g transform="translate(530, 120) rotate(-30)">
  <polygon points="0,0 30,12 0,24" fill="#2d9e2d"/>
  <polygon points="0,12 30,12 15,20" fill="#1a7a1a"/>
</g>
<!-- Dotted trail -->
<circle cx="518" cy="132" r="2" fill="#2d9e2d" opacity="0.6"/>
<circle cx="504" cy="148" r="2" fill="#2d9e2d" opacity="0.5"/>
<circle cx="492" cy="166" r="2" fill="#2d9e2d" opacity="0.4"/>
<circle cx="482" cy="186" r="2" fill="#2d9e2d" opacity="0.3"/>

<!-- Cloud -->
<ellipse cx="155" cy="180" rx="32" ry="18" fill="#d8eed8" opacity="0.7"/>
<ellipse cx="175" cy="172" rx="22" ry="16" fill="#d8eed8" opacity="0.7"/>
<ellipse cx="135" cy="175" rx="20" ry="14" fill="#d8eed8" opacity="0.7"/>

<!-- === PHONE === -->
<!-- Phone body shadow -->
<rect x="218" y="84" width="220" height="420" rx="30" fill="#1a1a2e" opacity="0.12"/>
<!-- Phone body -->
<rect x="215" y="80" width="220" height="420" rx="30" fill="#1a1a2e"/>
<!-- Phone screen -->
<rect x="228" y="96" width="194" height="388" rx="18" fill="#ffffff"/>
<!-- Notch -->
<rect x="295" y="80" width="60" height="18" rx="9" fill="#1a1a2e"/>

<!-- Screen content -->
<!-- Shield icon -->
<g transform="translate(340, 190)">
  <path d="M0,-44 C18,-44 38,-36 38,-36 L38,0 C38,22 20,36 0,44 C-20,36 -38,22 -38,0 L-38,-36 C-38,-36 -18,-44 0,-44 Z" fill="#2d9e2d"/>
  <rect x="-14" y="-8" width="28" height="22" rx="4" fill="white"/>
  <path d="M-9,-8 L-9,-18 C-9,-26 9,-26 9,-18 L9,-8" fill="none" stroke="white" stroke-width="4.5" stroke-linecap="round"/>
  <circle cx="0" cy="4" r="5" fill="#2d9e2d"/>
  <rect x="-3" y="4" width="6" height="7" rx="1" fill="#2d9e2d"/>
</g>

<!-- Welcome Back text -->
<text x="325" y="265" text-anchor="middle" font-family="sans-serif" font-size="18" font-weight="700" fill="#1a1a2e">Welcome Back</text>
<text x="325" y="284" text-anchor="middle" font-family="sans-serif" font-size="12" fill="#666">Let's get you logged in</text>

<!-- Green checkmark circle -->
<g transform="translate(325, 340)">
  <circle cx="0" cy="0" r="26" fill="#2d9e2d"/>
  <path d="M-12,0 L-4,10 L14,-10" fill="none" stroke="white" stroke-width="4" stroke-linecap="round" stroke-linejoin="round"/>
</g>

<!-- === LARGE PLANT LEFT === -->
<ellipse cx="120" cy="565" rx="38" ry="12" fill="#5a3e28"/>
<rect x="85" y="545" width="70" height="30" rx="6" fill="#6b4c30"/>
<line x1="120" y1="545" x2="120" y2="430" stroke="#4a7c4a" stroke-width="5" stroke-linecap="round"/>
<ellipse cx="90" cy="430" rx="40" ry="20" fill="#3a8f3a" transform="rotate(-30, 90, 430)"/>
<ellipse cx="150" cy="420" rx="38" ry="18" fill="#2d9e2d" transform="rotate(25, 150, 420)"/>
<ellipse cx="85" cy="470" rx="35" ry="17" fill="#4aaa4a" transform="rotate(-20, 85, 470)"/>
<ellipse cx="155" cy="465" rx="33" ry="16" fill="#3a8f3a" transform="rotate(20, 155, 465)"/>
<ellipse cx="100" cy="500" rx="28" ry="14" fill="#2d9e2d" transform="rotate(-15, 100, 500)"/>
<ellipse cx="140" cy="495" rx="28" ry="13" fill="#4aaa4a" transform="rotate(15, 140, 495)"/>
<line x1="90" y1="430" x2="70" y2="415" stroke="#2a7a2a" stroke-width="1.5" opacity="0.5"/>
<line x1="150" y1="420" x2="168" y2="408" stroke="#2a7a2a" stroke-width="1.5" opacity="0.5"/>

<!-- === SMALL PLANT RIGHT === -->
<ellipse cx="550" cy="565" rx="28" ry="9" fill="#5a3e28"/>
<rect x="525" y="550" width="50" height="22" rx="5" fill="#6b4c30"/>
<line x1="550" y1="550" x2="550" y2="490" stroke="#4a7c4a" stroke-width="4" stroke-linecap="round"/>
<ellipse cx="528" cy="500" rx="28" ry="13" fill="#2d9e2d" transform="rotate(-25, 528, 500)"/>
<ellipse cx="572" cy="495" rx="26" ry="12" fill="#3a8f3a" transform="rotate(22, 572, 495)"/>
<ellipse cx="530" cy="525" rx="22" ry="11" fill="#4aaa4a" transform="rotate(-18, 530, 525)"/>
<ellipse cx="568" cy="520" rx="22" ry="11" fill="#2d9e2d" transform="rotate(18, 568, 520)"/>

<!-- Ground / grass strip -->
<ellipse cx="340" cy="580" rx="300" ry="20" fill="#c8eac8" opacity="0.6"/>

<!-- === PERSON === -->
<!-- Shoes -->
<ellipse cx="275" cy="580" rx="28" ry="12" fill="#2d9e2d"/>
<ellipse cx="275" cy="575" rx="24" ry="8" fill="#3aaf3a"/>
<rect x="252" y="568" width="14" height="8" rx="3" fill="white" opacity="0.5"/>
<ellipse cx="355" cy="582" rx="26" ry="10" fill="#2d9e2d"/>
<ellipse cx="355" cy="577" rx="22" ry="7" fill="#3aaf3a"/>
<rect x="334" y="570" width="14" height="8" rx="3" fill="white" opacity="0.5"/>

<!-- Pants -->
<ellipse cx="315" cy="560" rx="65" ry="28" fill="#2a2a3e"/>
<path d="M260,555 Q290,580 315,565 Q340,580 370,555" fill="#2a2a3e"/>

<!-- Hoodie body -->
<rect x="270" y="460" width="95" height="110" rx="20" fill="#3aaf3a"/>
<!-- Pocket -->
<rect x="292" y="530" width="50" height="20" rx="8" fill="#2d9e2d"/>
<!-- Arms -->
<path d="M270,500 Q240,520 245,555" fill="none" stroke="#3aaf3a" stroke-width="28" stroke-linecap="round"/>
<path d="M365,500 Q390,520 385,555" fill="none" stroke="#3aaf3a" stroke-width="26" stroke-linecap="round"/>

<!-- Laptop -->
<rect x="248" y="540" width="140" height="85" rx="6" fill="#c0c0c8"/>
<rect x="254" y="546" width="128" height="72" rx="4" fill="#1a1a2e"/>
<rect x="258" y="550" width="120" height="64" rx="3" fill="#1e3a5f"/>
<rect x="264" y="556" width="40" height="6" rx="2" fill="#4a9a4a" opacity="0.8"/>
<rect x="264" y="566" width="60" height="4" rx="2" fill="#6aaa6a" opacity="0.6"/>
<rect x="264" y="574" width="50" height="4" rx="2" fill="#6aaa6a" opacity="0.5"/>
<rect x="240" y="622" width="158" height="8" rx="4" fill="#a8a8b0"/>
<rect x="232" y="628" width="174" height="5" rx="2" fill="#909098"/>

<!-- Neck -->
<rect x="305" y="445" width="25" height="25" rx="8" fill="#f5c5a0"/>
<!-- Head -->
<ellipse cx="317" cy="430" rx="32" ry="33" fill="#f5c5a0"/>
<!-- Hair -->
<path d="M285,420 Q295,395 317,393 Q340,393 350,412 Q348,400 335,395 Q320,390 305,395 Q290,400 285,420Z" fill="#2a1a0a"/>
<ellipse cx="317" cy="400" rx="25" ry="12" fill="#2a1a0a"/>
<!-- Eyes -->
<ellipse cx="307" cy="428" rx="4" ry="4.5" fill="#2a1a0a"/>
<ellipse cx="328" cy="428" rx="4" ry="4.5" fill="#2a1a0a"/>
<circle cx="309" cy="426" r="1.5" fill="white"/>
<circle cx="330" cy="426" r="1.5" fill="white"/>
<!-- Smile -->
<path d="M306,440 Q317,450 328,440" fill="none" stroke="#c08060" stroke-width="2.5" stroke-linecap="round"/>
<!-- Eyebrows -->
<path d="M302,421 Q307,418 313,421" fill="none" stroke="#2a1a0a" stroke-width="2" stroke-linecap="round"/>
<path d="M323,421 Q328,418 333,421" fill="none" stroke="#2a1a0a" stroke-width="2" stroke-linecap="round"/>
<!-- Ears -->
<ellipse cx="284" cy="432" rx="6" ry="8" fill="#f5c5a0"/>
<ellipse cx="350" cy="432" rx="6" ry="8" fill="#f5c5a0"/>

<!-- Bottom text -->
<text x="340" y="660" text-anchor="middle" font-family="sans-serif" font-size="22" font-weight="600" fill="#1a1a2e">Smart Access. Smarter You.</text>
<text x="340" y="690" text-anchor="middle" font-family="sans-serif" font-size="14" fill="#4a7a4a">Secure  •  Simple  •  Seamless</text>
</svg>
